<?xml version="1.0" encoding="utf-8"?>
<!-- Generator: Adobe Illustrator 18.1.0, SVG Export Plug-In . SVG Version: 6.00 Build 0)  -->
<svg version="1.0" id="Layer_1" xmlns="http://www.w3.org/2000/svg" xmlns:xlink="http://www.w3.org/1999/xlink" x="0px" y="0px"
	 viewBox="0 0 106 100.1" enable-background="new 0 0 106 100.1" xml:space="preserve">
<g>
	<path fill="#FFFFFF" d="M27.2,90.9c0.6,0,1.1,0.3,1.5,0.6l0.5-0.4c-0.4-0.4-1.1-0.7-1.8-0.7c-1.3,0-2.3,0.9-2.3,1.9v0.1
		c0,1,0.8,1.9,2.2,1.9c0.8,0,1.5-0.3,1.9-0.7l-0.4-0.4c-0.3,0.3-0.8,0.6-1.4,0.6c-1,0-1.6-0.6-1.6-1.3v-0.1
		C25.7,91.6,26.2,90.9,27.2,90.9z"/>
	<path fill="#FFFFFF" d="M33.8,90.3c-1.3,0-2.1,0.9-2.1,1.9v0.1c0,1,0.8,1.9,2.1,1.9c1.3,0,2.1-0.9,2.1-1.9v-0.1
		C35.9,91.3,35.1,90.3,33.8,90.3z M35.2,92.4c0,0.7-0.5,1.3-1.4,1.3c-0.9,0-1.4-0.6-1.4-1.3v-0.1c0-0.7,0.5-1.3,1.4-1.3
		C34.7,90.9,35.2,91.6,35.2,92.4L35.2,92.4z"/>
	<polygon fill="#FFFFFF" points="41.4,93 41.2,93.3 41,93 39.6,90.5 38.6,90.5 38.6,94.1 39.3,94.1 39.3,91.3 39.5,91.6 41,94.1 
		41.4,94.1 42.9,91.6 43.1,91.3 43.1,94.1 43.7,94.1 43.7,90.5 42.8,90.5 	"/>
	<polygon fill="#FFFFFF" points="49.5,93 49.3,93.3 49.1,93 47.7,90.5 46.8,90.5 46.8,94.1 47.4,94.1 47.4,91.3 47.6,91.6 
		49.1,94.1 49.5,94.1 51,91.6 51.2,91.3 51.2,94.1 51.8,94.1 51.8,90.5 50.9,90.5 	"/>
	<path fill="#FFFFFF" d="M58,92.6c0,0.7-0.4,1.1-1.2,1.1c-0.9,0-1.3-0.4-1.3-1.1v-2.1h-0.7v2.1c0,0.9,0.6,1.7,1.9,1.7
		c1.4,0,1.9-0.7,2-1.7v-2.1H58V92.6z"/>
	<polygon fill="#FFFFFF" points="64.8,93.1 64.6,92.9 62.3,90.5 61.6,90.5 61.6,94.1 62.3,94.1 62.3,91.4 62.6,91.7 64.9,94.1 
		64.9,94.1 65.5,94.1 65.5,90.5 64.8,90.5 	"/>
	<rect x="68.5" y="90.5" fill="#FFFFFF" width="0.7" height="3.6"/>
	<polygon fill="#FFFFFF" points="72,91 73.6,91 73.6,94.1 74.3,94.1 74.3,91 75.9,91 75.9,90.5 72,90.5 	"/>
	<polygon fill="#FFFFFF" points="80.4,92.2 79,90.5 78.2,90.5 80,92.7 80,94.1 80.7,94.1 80.7,92.7 82.5,90.5 81.7,90.5 	"/>
	<path fill="#FFFFFF" d="M21.3,91.6H3.7c-0.4,0-0.7,0.3-0.7,0.7C3,92.7,3.3,93,3.7,93h17.6c0.4,0,0.7-0.3,0.7-0.7
		C22,91.9,21.7,91.6,21.3,91.6z"/>
	<path fill="#FFFFFF" d="M102.3,91.6H86.2c-0.4,0-0.7,0.3-0.7,0.7c0,0.4,0.3,0.7,0.7,0.7h16.1c0.4,0,0.7-0.3,0.7-0.7
		C103,91.9,102.7,91.6,102.3,91.6z"/>
	<path fill="#FFFFFF" d="M16,38.8c0.2,0.2,0.5,0.2,0.7,0l0.7-0.7c0.2-0.2,0.2-0.6,0-0.7L12.8,33l1.1-1.2c0.6-0.6,1.6-0.7,2.3,0
		l3.4,3.3c0.2,0.2,0.5,0.2,0.7,0l0.7-0.7c0.2-0.2,0.2-0.6,0-0.7l-3.4-3.3c-0.7-0.7-1.7-1.1-2.7-1c0-1-0.4-1.9-1.2-2.6l-1.1-1
		c-1.4-1.4-3.7-1.4-5.2,0.1l-1.8,1.9c-0.4,0.4-0.4,1.1,0,1.4L16,38.8z M9,27.1c0.6-0.6,1.6-0.7,2.3,0l1.1,1.1
		c0.7,0.6,0.7,1.7,0.1,2.3l-1.1,1.2l-3.5-3.3L9,27.1z"/>
	<path fill="#FFFFFF" d="M26.5,25.5l-4.8-6.8c-1.2-1.6-3.5-2-5.1-0.9c-1.7,1.2-2,3.5-0.9,5.1l4.8,6.8c1.2,1.7,3.5,2.1,5.1,0.9
		C27.3,29.5,27.7,27.2,26.5,25.5z M24.5,29c-0.8,0.6-1.8,0.4-2.3-0.4l-4.8-6.8C16.8,21,17,20,17.7,19.4c0.7-0.5,1.8-0.3,2.3,0.4
		l4.8,6.8C25.4,27.4,25.2,28.4,24.5,29z"/>
	<path fill="#FFFFFF" d="M33.4,26c1.8-0.8,2.7-3,1.8-4.8l-4.7-10.5c-0.1-0.3-0.4-0.4-0.6-0.2L29,10.9c-0.3,0.1-0.4,0.4-0.3,0.7
		L33.4,22c0.4,0.8,0,1.8-0.8,2.2c-0.8,0.4-1.8,0-2.2-0.8l-4.7-10.5c-0.1-0.3-0.4-0.4-0.7-0.3L24.1,13c-0.2,0.1-0.4,0.4-0.3,0.7
		l4.7,10.5C29.4,26,31.6,26.9,33.4,26z"/>
	<path fill="#FFFFFF" d="M34.7,10.4c0.1,0.3,0.3,0.4,0.6,0.4l1.4-0.4l3.2,12.7c0.1,0.2,0.3,0.4,0.6,0.4l1-0.2
		c0.3-0.1,0.4-0.4,0.4-0.6L38.6,9.8L40,9.5c0.3-0.1,0.4-0.3,0.4-0.6l-0.2-1c-0.1-0.3-0.4-0.4-0.6-0.3l-4.7,1.2
		c-0.3,0.1-0.4,0.3-0.4,0.6L34.7,10.4z"/>
	<path fill="#FFFFFF" d="M45.3,21.3c0,0.5,0.5,1,1.1,0.9l3.7-0.4c0.3,0,0.5-0.3,0.5-0.6l-0.1-1c0-0.3-0.3-0.5-0.6-0.5l-2.7,0.3
		l-0.5-4.8l2.7-0.3c0.3,0,0.5-0.3,0.5-0.6l-0.1-1c0-0.3-0.3-0.5-0.6-0.5l-2.7,0.3l-0.5-4.8l2.7-0.3c0.3,0,0.5-0.3,0.5-0.6l-0.1-1
		c0-0.3-0.3-0.5-0.6-0.5L45,6.6c-0.6,0-1,0.5-0.9,1.1L45.3,21.3z"/>
	<path fill="#FFFFFF" d="M57.1,21.8l1,0.2c0.2,0,0.5-0.2,0.6-0.4l1-6.3l1.6,0.3c0.9,0.1,1.5,1,1.3,1.8l-0.8,4.7
		c0,0.2,0.1,0.5,0.4,0.6l1,0.2c0.3,0,0.5-0.2,0.6-0.4l0.8-4.7c0.2-1-0.1-2-0.7-2.8c0.8-0.6,1.3-1.4,1.5-2.4l0.3-1.5
		c0.3-2-1-3.8-3-4.2l-2.6-0.4c-0.6-0.1-1.1,0.3-1.2,0.8l-2.3,14C56.6,21.5,56.8,21.8,57.1,21.8z M60.8,8.6l1.6,0.3
		c0.9,0.1,1.5,1,1.3,1.8l-0.2,1.5c-0.2,0.9-1,1.5-1.9,1.4L60,13.3L60.8,8.6z"/>
	<path fill="#FFFFFF" d="M66.2,23.6l1,0.3c0.3,0.1,0.5-0.1,0.6-0.3l4.4-14C72.2,9.3,72,9,71.8,9l-1-0.3c-0.3-0.1-0.5,0.1-0.6,0.3
		l-4.4,14C65.7,23.3,65.9,23.5,66.2,23.6z"/>
	<path fill="#FFFFFF" d="M79.6,12l-2.4-1.2c-0.5-0.2-1.1,0-1.3,0.5l-5.9,12.3c-0.2,0.5,0,1.1,0.5,1.3l2.4,1.2c1.8,0.9,4,0.1,4.9-1.8
		l3.6-7.5C82.1,15,81.4,12.8,79.6,12z M79.4,16l-3.6,7.5c-0.4,0.8-1.4,1.2-2.2,0.8l-1.5-0.7l5-10.5l1.5,0.7
		C79.5,14.2,79.8,15.2,79.4,16z"/>
	<path fill="#FFFFFF" d="M85.6,25.8c0.2,0.2,0.5,0.1,0.7-0.1l0.6-0.8c0.2-0.2,0.1-0.5-0.1-0.7l-2.3-1.6l2.8-3.9l2.3,1.6
		c0.2,0.2,0.5,0.1,0.7-0.1l0.6-0.8c0.2-0.2,0.1-0.5-0.1-0.7l-3.1-2.2c-0.5-0.3-1.1-0.2-1.4,0.2l-7.9,11.1c-0.3,0.4-0.2,1.1,0.2,1.4
		l3.1,2.2c0.2,0.2,0.5,0.1,0.7-0.1l0.6-0.8c0.2-0.2,0.1-0.5-0.1-0.7l-2.3-1.6l2.8-3.9L85.6,25.8z"/>
	<path fill="#FFFFFF" d="M90.8,30.4c0.6,0.6,0.6,1.7,0,2.3l-3.3,3.3c-0.2,0.2-0.2,0.5,0,0.7l0.7,0.7c0.2,0.2,0.6,0.2,0.7,0l3.3-3.3
		c0.7-0.7,1.1-1.7,1.1-2.6c1,0,1.9-0.4,2.7-1.1l1.1-1.1c1.4-1.4,1.4-3.7,0-5.2l-1.8-1.9c-0.4-0.4-1-0.4-1.4,0l-10,10
		c-0.2,0.2-0.2,0.5,0,0.7l0.7,0.7c0.2,0.2,0.6,0.2,0.7,0l4.5-4.5L90.8,30.4z M94.5,24.5l1.2,1.2c0.6,0.6,0.6,1.7,0,2.3L94.5,29
		c-0.6,0.6-1.7,0.6-2.3,0l-1.2-1.2L94.5,24.5z"/>
	<path fill="#FFFFFF" d="M72.5,54.2l0.3-0.7h-1.1c1.8-1.3,2.9-3.5,3-3.6l0.4-0.7H55.9v-3.6h2.5c2,0,2.1,2,2.1,2.1v0.3h3.4V37.1h0.3
		v-0.7h-0.3v-1h0.3v-0.7h-0.3v-1c0-0.5-0.3-1.2-1.1-1.2H44c-0.8,0-1.1,0.7-1.1,1.2v1h-0.3v0.7H43v1h-0.3v0.7H43v10.8h3.4v-0.3
		c0-0.1,0.1-2.1,2.1-2.1h1.7v3.6H30.9l0.4,0.7c0.1,0.1,1.2,2.3,3,3.6h-1.1l0.3,0.7c0.1,0.2,1.2,2.6,3.1,4h-1.8l0.3,0.7
		c0.1,0.2,2.5,5.5,7.3,5.5h6.7c-0.2,0.4-0.6,0.8-0.9,1.2c-0.4,0.3-0.7,0.6-1,0.9c-0.2-0.2-0.5-0.3-0.8-0.3h-1.2
		c-0.7,0-1.2,0.6-1.2,1.2V77c0,0.7,0.6,1.2,1.2,1.2h1.2c0.3,0,0.6-0.1,0.8-0.3c1.6,1.7,3.7,2.6,6.1,2.6c0,0,0,0-0.1,0
		c-1.7,0-3.2-0.5-4.7-1.4v1.8h9.4v-1.7c0.6-0.4,1.1-0.8,1.6-1.4c0.2,0.3,0.6,0.4,0.9,0.4h1.2c0.7,0,1.2-0.6,1.2-1.2v-9.5
		c0-0.7-0.6-1.2-1.2-1.2h-1.2c-0.4,0-0.7,0.2-0.9,0.4c-0.3-0.4-0.7-0.7-1.1-1c0,0-0.6-0.5-1.2-1.2h6.4c4.8,0,7.2-5.3,7.3-5.5
		l0.3-0.7h-1.8C71.3,56.8,72.5,54.4,72.5,54.2z M61.2,38.5c-0.1,0-0.1,0-0.2,0v-1.4h0.2V38.5z M45.7,37.1h0.1v1.4c0,0-0.1,0-0.1,0
		V37.1z M45.9,35.4v1h-0.1v-1H45.9z M60.2,36.4H46.6v-1h13.6V36.4z M60.4,35.4h0.2v1h-0.2V35.4z M46.4,36.4h-0.2v-1h0.2V36.4z
		 M61,35.4h0.2v1H61V35.4z M61.8,35.4H62v1h-0.2V35.4z M45.1,35.4v1h-0.2v-1H45.1z M46.2,37.1h0.2v1.3c-0.1,0-0.1,0-0.2,0V37.1z
		 M46.6,37.1h13.6v1.3c-0.3,0-0.6-0.1-0.9-0.1c-0.4,0-0.8-0.1-1.3-0.1c-0.5,0-1,0-1.5-0.1c-0.5,0-1,0-1.6,0c-0.5,0-1.1,0-1.6,0
		c-0.5,0-1.1,0-1.6,0s-1.1,0-1.6,0c-0.5,0-1,0-1.5,0.1c-0.5,0-0.9,0-1.3,0.1c-0.3,0-0.6,0-0.9,0.1V37.1z M60.4,37.1h0.2v1.4
		c-0.1,0-0.1,0-0.2,0V37.1z M62,34.7h-0.2v-1.5H62V34.7z M61.2,34.7H61v-1.5h0.2V34.7z M60.7,34.7h-0.2v-1.5h0.2V34.7z M60.2,34.7
		H46.6v-0.2v-1.3h13.6V34.7z M46.4,34.5v0.2h-0.2v-0.2v-1.3h0.2V34.5z M45.9,34.5v0.2h-0.1v-0.2v-1.3h0.1V34.5z M45.1,34.5v0.2h-0.2
		v-0.2v-1.3h0.2V34.5z M45.1,37.1v1.5c0,0-0.1,0-0.1,0c0,0-0.1,0-0.1,0v-1.5H45.1z M62,38.6c0,0-0.1,0-0.2,0c0,0,0,0,0,0v-1.5H62
		V38.6z M46.5,45.5v-6.2h-0.2v6.4c-0.1,0.1-0.1,0.2-0.2,0.3v-6.7h-0.3v7.5c0,0.1-0.1,0.2-0.1,0.4h-0.1v-7.8H45v7.8h-0.2v-7.8h-1.1
		v-0.6h1.1c0,0,0,0,0,0c0.4,0,4.5,0,8.6,0c2.6,0,5.2,0,6.8,0v0h0.2v0c0.1,0,0.1,0,0.2,0v0H61v0c0.1,0,0.1,0,0.2,0v0h0.6v0
		c0.1,0,0.2,0,0.2,0v0h1.2v0.6H62v7.8h-0.2v-7.8h-0.6v7.8h0c0-0.2-0.1-0.4-0.1-0.6v-7.3h-0.3v6.6c-0.1-0.1-0.1-0.2-0.2-0.3v-6.3
		h-0.2v6.1c-0.4-0.4-1-0.7-1.9-0.7h-2.9l0,0h-5.1l0,0h-2C47.6,44.8,46.9,45.1,46.5,45.5z M66.7,58.2H56v-3.7h15.2
		C70.5,55.8,68.8,58.2,66.7,58.2z M56,50.1h17.4c-0.7,1.2-2.4,3.3-4.4,3.3H56V50.1z M32.7,50.2H50v3.3H36.7
		C34.8,53.2,33.3,51.3,32.7,50.2z M34.9,54.5h2.3H50v3.7H39.3C37.3,58.2,35.6,55.8,34.9,54.5z M42.4,63.4c-3.1,0-5.2-2.8-6-4.1h2.9
		H50v2.9c-0.1,0.4-0.2,0.8-0.4,1.2H42.4z M58,66.2c0.5,0.4,0.9,0.8,1.3,1.3l0.6-0.1c0.1-0.2,0.3-0.4,0.6-0.4h1.2
		c0.3,0,0.6,0.2,0.6,0.6v0.7h-0.5v3.5h0.5v0.5h-0.5v3.5h0.5V77c0,0.3-0.2,0.6-0.6,0.6h-1.2c-0.3,0-0.5-0.2-0.6-0.4L59.3,77
		c-1.5,1.8-3.6,2.9-6,2.9c-2.3,0-4.4-1-5.9-2.7L47,77.3c-0.1,0.2-0.3,0.3-0.5,0.3h-1.2c-0.3,0-0.6-0.2-0.6-0.6v-1.3h0.5v-3.5h-0.5
		v-0.5h0.5v-3.5h-0.5v-0.7c0-0.3,0.2-0.6,0.6-0.6h1.2c0.2,0,0.4,0.1,0.5,0.3l0.6,0.1c0.3-0.4,0.7-0.8,1.2-1.1l0,0
		c2.1-2.1,2.1-4.8,2.1-5V45.5h4.4v15.6C55.2,64.1,57.9,66.1,58,66.2z M69.6,59.2c-0.8,1.3-2.9,4.1-6,4.1h-7.1
		c-0.1-0.3-0.3-0.6-0.4-0.9L56,62v0.2c-0.1-0.3-0.1-0.7-0.1-1L56,62v-2.7h10.7H69.6z"/>
	<path fill="#FFFFFF" d="M52,47.9c0-0.6,0.5-1.2,1.2-1.2c0.6,0,1.2,0.5,1.2,1.2H55c0-1-0.8-1.8-1.8-1.8c-1,0-1.8,0.8-1.8,1.8v12.7
		H52V47.9z"/>
	<path fill="#FFFFFF" d="M46.6,72.2c0,3.7,3,6.7,6.7,6.7c3.7,0,6.7-3,6.7-6.7s-3-6.7-6.7-6.7C49.6,65.5,46.6,68.5,46.6,72.2z
		 M58.7,72.2c0,2.9-2.4,5.3-5.3,5.3c-2.9,0-5.3-2.4-5.3-5.3c0-2.9,2.4-5.3,5.3-5.3C56.3,66.9,58.7,69.3,58.7,72.2z"/>
	<path fill="#FFFFFF" d="M53.4,44.2c1.3,0,2.4-1.1,2.4-2.4s-1.1-2.4-2.4-2.4c-1.3,0-2.4,1.1-2.4,2.4S52.1,44.2,53.4,44.2z
		 M53.4,40.4c0.8,0,1.4,0.6,1.4,1.4s-0.6,1.4-1.4,1.4c-0.8,0-1.4-0.6-1.4-1.4S52.7,40.4,53.4,40.4z"/>
	<rect x="45.3" y="72.2" fill="#FFFFFF" width="0.4" height="3.5"/>
	<rect x="45.3" y="68.2" fill="#FFFFFF" width="0.4" height="3.5"/>
	<rect x="45.8" y="72.2" fill="#FFFFFF" width="0.2" height="3.5"/>
	<rect x="45.8" y="68.2" fill="#FFFFFF" width="0.2" height="3.5"/>
	<rect x="46.1" y="72.2" fill="#FFFFFF" width="0.1" height="3.5"/>
	<rect x="46.1" y="68.2" fill="#FFFFFF" width="0.1" height="3.5"/>
	<rect x="61.2" y="68.2" fill="#FFFFFF" width="0.4" height="3.5"/>
	<rect x="61.2" y="72.2" fill="#FFFFFF" width="0.4" height="3.5"/>
	<rect x="60.9" y="68.2" fill="#FFFFFF" width="0.2" height="3.5"/>
	<rect x="60.9" y="72.2" fill="#FFFFFF" width="0.2" height="3.5"/>
	<rect x="60.7" y="68.2" fill="#FFFFFF" width="0.1" height="3.5"/>
	<rect x="60.7" y="72.2" fill="#FFFFFF" width="0.1" height="3.5"/>
</g>
</svg>
